<svg width="327" height="534" viewBox="0 0 327 534" fill="none" xmlns="http://www.w3.org/2000/svg">
<path d="M43.5 55C24.0136 36.0921 -1.5 2 -1.5 2V422C-1.5 422 14.4182 427.497 21.5 435C34.0906 448.34 21.8637 465.094 31 481C42.4567 500.946 55.9424 509.977 78 516.5C95.7883 521.761 106.026 528.011 125 531C151.45 535.167 167.259 534.065 193.5 528C218.407 522.243 230.438 510.037 247.5 491C262.388 474.389 265.992 461.435 276 441.5C286.952 419.686 291.856 406.827 300.5 384C309.531 360.151 317.051 347.194 321 322C324.75 298.08 329.623 282.625 321 260C313.245 239.652 301.596 231.666 285.5 217C265.84 199.086 250.304 194.99 228 180.5C207.564 167.223 196.534 159.124 176 146C148.094 128.164 130.681 120.923 103.5 102C79.0723 84.9937 64.8614 75.7272 43.5 55Z" fill="#FFF2F5" stroke="#FFF2F5"/>
</svg>
