<svg width="319" height="430" viewBox="0 0 319 430" fill="none" xmlns="http://www.w3.org/2000/svg">
<path d="M299 31.5C308.446 26.2979 319.5 13 319.5 13V392.5C319.5 392.5 301.568 383.931 289.5 380C266.364 372.464 252.309 368.925 228 370C208.871 370.846 196.686 370.609 180 380C164.719 388.601 162.767 401.804 148.5 412C137.697 419.72 131.544 425.518 118.5 428C101.646 431.207 91.7546 424.489 75.5 419C59.5289 413.607 49.7979 410.86 36.5 400.5C24.1532 390.881 17.527 383.985 10.5 370C1.53523 352.158 -1.37269 339.088 2.5 319.5C5.12652 306.215 11.5189 300.383 17 288C20.1858 280.802 22.9289 277.094 25 269.5C28.8533 255.371 25.9434 246.614 25 232C23.6889 211.689 15.2452 200.777 17 180.5C18.9173 158.345 25.1315 146.112 36.5 127C50.3377 103.737 63.0718 93.5375 84.5 77C104.44 61.6109 116.554 52.8134 140.5 45C165.141 36.9598 180.609 39.209 206.5 38C226.98 37.0436 238.582 39.8619 259 38C274.76 36.5628 285.137 39.1345 299 31.5Z" fill="#FFFCDE" stroke="#FFFCDE"/>
<path d="M110.5 1.00003C119.743 0.59212 134 4.00003 134 4.00003C134 4.00003 124.437 9.00418 119.5 13C113.773 17.6357 112.308 20.9654 106.5 25.5C100.731 30.0043 98.605 33.7933 93.0001 38.5C87.9757 42.7192 85.7572 46.5268 79.5001 48.5C73.7272 50.3206 69.5475 50.9221 64.0001 48.5C58.9386 46.2901 56.0243 43.6385 54.0001 38.5C52.1393 33.7765 52.0115 30.1712 54.0001 25.5C56.5699 19.4634 61.92 18.9509 67.5001 15.5C74.8542 10.9521 79.3262 8.82057 87.5001 6.00003C96.1891 3.0017 101.317 1.40529 110.5 1.00003Z" fill="#FFFCDE" stroke="#FFFCDE"/>
</svg>
