<svg width="151" height="643" viewBox="0 0 151 643" fill="none" xmlns="http://www.w3.org/2000/svg">
<path d="M78.9844 542.206C76.7121 538.206 75.961 535.558 71.4809 532.92C64.28 528.681 59.7944 526.266 51.5406 525.28C43.6901 524.342 38.9592 525.158 31.4864 527.639C24.3011 530.026 20.2141 532.088 14.6374 537.211C9.34792 542.069 6.66781 545.557 4.02616 552.27C1.11838 559.66 0.295244 564.68 1.72569 572.545C3.36984 581.584 6.16833 587.323 13.3628 593.031C19.1507 597.623 24.6292 595.984 30.9854 599.73C38.2314 604 41.3572 607.899 47.1366 614.039C52.5584 619.799 53.7897 624.698 59.7239 629.921C66.5846 635.959 71.0479 640.358 80.0619 641.4C88.4873 642.374 93.8439 640.365 100.974 635.843C106.998 632.023 109.91 628.685 113.423 622.449C116.955 616.179 118.202 611.907 118.48 604.673C118.713 598.634 118.142 595.042 116.022 589.36C114.307 584.764 113.151 582.029 109.815 578.434C106.552 574.918 103.443 574.503 99.6668 571.554C93.7511 566.934 90.1581 564.338 85.8333 558.187C83.6286 555.051 81.6491 553.421 80.9845 549.651C80.3784 546.212 80.4235 544.74 78.9844 542.206Z" fill="#FFF0EB" stroke="#FFF0EB"/>
<path d="M97.2238 59.5C115.017 34.6798 150.224 2 150.224 2V506C150.224 506 135.424 507.791 126.224 506C109.361 502.717 101.265 494.742 88.7238 483C68.9528 464.488 66.1579 446.994 55.7238 422C39.5408 383.235 34.7788 359.26 30.2238 317.5C26.4338 282.754 25.4453 262.624 30.2238 228C35.1667 192.184 42.2565 172.553 55.7238 139C68.769 106.498 76.8187 87.9638 97.2238 59.5Z" fill="#FFF0EB" stroke="#FFF0EB"/>
</svg>
