<svg width="96" height="469" viewBox="0 0 96 469" fill="none" xmlns="http://www.w3.org/2000/svg">
<path d="M29.5 31.5C19.2364 18.8439 0.5 1.5 0.5 1.5L-5.5 468C-5.5 468 20.3713 467.188 35 460.5C46.3333 455.318 51.8475 450.457 61 442C72.9617 430.947 79.6877 423.793 86.5 409C92.7013 395.533 94.8263 386.825 95 372C95.1271 361.148 94.2735 354.847 91 344.5C87.2582 332.673 82.764 326.899 76 316.5C70.6765 308.316 65.9424 304.92 61 296.5C54.3002 285.086 51.785 279.647 45.5 268C41.5387 260.659 40.5375 254.554 37 247C32.1193 236.577 30.4849 232.061 29.5 218.5C29.005 211.684 31.4298 199.513 33.5 193C36.022 185.066 43.9824 178.493 48.5 171.5C55.1919 161.141 58.3112 154.536 61 142.5C64.1504 128.398 62.2247 119.897 61 105.5C59.8083 91.4904 59.8211 83.2079 55 70C48.8164 53.0593 40.8591 45.507 29.5 31.5Z" fill="#FFFCDE" stroke="#FFFCDE"/>
</svg>
