<svg width="1440" height="617" viewBox="0 0 1440 617" fill="none" xmlns="http://www.w3.org/2000/svg">
<path d="M43.5 19.3091C20.2529 34.3566 0 75.3091 0 75.3091V617.309H1446.5L1466 493.309L1446.5 386.309C1446.5 386.309 1386.87 330.08 1342 303.809C1299.41 278.871 1273.9 264.477 1225.5 254.809C1178.01 245.324 1149.51 248.466 1101.5 254.809C1051.72 261.386 1026.79 279.224 977.5 288.809L975.574 289.184C926.973 298.637 898.558 304.163 848.5 303.809C800.692 303.471 773.122 301.398 727 288.809C674.572 274.499 646.743 259.359 600.5 230.809C557.322 204.151 540.873 178.23 498.5 150.309C444.976 115.04 410.407 102.796 352.5 75.3091C303.694 52.1418 278.071 33.7101 226 19.3091C181.686 7.0532 155.214 -2.61013 109.5 2.30908C83.0369 5.15673 65.8436 4.84639 43.5 19.3091Z" fill="#FFFCDE" stroke="#FFFCDE"/>
</svg>
