<svg width="333" height="602" viewBox="0 0 333 602" fill="none" xmlns="http://www.w3.org/2000/svg">
<path d="M479.24 31C503.7 17.8295 543.74 1 543.74 1V509C543.74 509 462.444 552.901 406.74 572C367 585.625 344.512 595.035 302.74 599.5C250.918 605.039 221.577 593.897 169.74 588.5C118.262 583.14 75.2567 608.173 38.24 572C14.8416 549.135 11.6249 527.086 5.23999 495C-0.781128 464.742 -0.0328979 446.397 5.23999 416C11.3259 380.915 16.2968 359.044 38.24 331C63.6096 298.577 89.8134 291.65 127.24 274.5C165.768 256.845 193.915 263.574 231.24 243.5C251.274 232.725 263.668 227.083 279.24 210.5C297.663 190.881 294.771 170.473 312.24 150C330.516 128.58 347.025 123.138 369.74 106.5C411.643 75.8069 433.507 55.6256 479.24 31Z" fill="#FFF0EB" stroke="#FFF0EB"/>
</svg>
