<svg width="257" height="355" viewBox="0 0 257 355" fill="none" xmlns="http://www.w3.org/2000/svg">
<path d="M58 1.89571C35.4394 -0.11964 0 1.89571 0 1.89571V353.396C0 353.396 39.903 340.99 58 322.896C68.9163 311.981 69.3509 301.073 80.5 290.396C94.2665 277.212 105.365 273.63 123 266.396C142.76 258.289 154.058 257.5 174.5 254.896C193.305 252.5 206.378 260.68 223 252.896C234.764 247.386 242.507 240.212 247.5 230.396C255.174 215.31 255.187 204.802 256 187.896C257.072 165.609 254.589 152.553 247.5 131.396C236.85 99.6098 223.966 83.3351 200 59.8957C182.799 43.0721 171.441 34.8135 150 23.8957C117.176 7.18172 94.9232 5.19397 58.3177 1.92409L58 1.89571Z" fill="#FFF2F5" stroke="#FFF2F5"/>
</svg>
