<svg width="297" height="535" viewBox="0 0 297 535" fill="none" xmlns="http://www.w3.org/2000/svg">
<path d="M242.873 33.5C278.767 13.5547 342.873 1 342.873 1V517C342.873 517 291.722 533.536 257.873 534C221.532 534.498 201.194 527.412 166.373 517C128.912 505.799 106.248 500.144 74.3733 477.5C47.2445 458.227 29.5724 446.355 14.8733 416.5C-1.09951 384.057 -1.2765 360.217 4.37334 324.5C10.0795 288.427 23.0267 269.829 43.3733 239.5C60.7093 213.659 75.9717 203.497 96.3733 180C124.271 147.87 136.023 126.324 166.373 96.5C193.978 69.3742 209.044 52.2984 242.873 33.5Z" fill="#FFFCDE" stroke="#FFFCDE"/>
</svg>
