<svg width="74" height="171" viewBox="0 0 74 171" fill="none" xmlns="http://www.w3.org/2000/svg">
<path d="M58.9044 167.241C58.9044 167.241 40.9236 158.328 32.7058 149.209C21.4087 136.673 16.3898 124.11 13.5226 107.378C10.3657 88.9558 11.9347 78.9796 19.7495 61.0515C24.4569 50.2522 25.0873 38.4884 36.3191 33.8289C46.1573 29.7475 56.409 31.7545 63.2736 38.7736C70.0373 45.6896 72.9558 57.9621 69.2603 67.3982C66.3014 74.9535 62.6105 78.8731 54.6556 81.522C45.1615 84.6834 39.867 80.8099 33.0936 74.2783C24.8459 66.3252 15.0333 56.3751 10.4434 44.7983C6.87008 35.7856 5.1898 32.7608 3.77739 23.0771C2.67321 15.5067 3.50804 0.761187 3.50804 0.761187M58.9044 167.241L20.0358 162.993M58.9044 167.241L39.5259 133.397" stroke="#F3722C" stroke-width="6"/>
</svg>
