<svg width="180" height="115" viewBox="0 0 180 115" fill="none" xmlns="http://www.w3.org/2000/svg">
<path d="M6 78.4772C6 78.4772 22.6699 90.6781 34.6667 93.5175C51.1585 97.4207 64.555 95.3605 80.5 89C98.0558 81.9969 105.934 75.0982 117.609 57.9678C124.642 47.649 134.537 40.6698 133 27.5C131.653 15.9643 124.818 7.33963 115.316 4.6434C105.953 1.98683 93.8526 5.87951 87.5 14.5C82.4136 21.4023 80.8461 27.0258 82.5 36C84.4739 46.7105 90.4662 49.6256 99.5 52.5C110.5 56 124.011 59.8994 136.338 57.9678C145.935 56.4641 149.395 56.4152 158.5 52.5C165.618 49.4392 178 40.6488 178 40.6488M6 78.4772L29 113M6 78.4772H45" stroke="#88001B" stroke-width="6"/>
</svg>
