<svg width="1371" height="625" viewBox="0 0 1371 625" fill="none" xmlns="http://www.w3.org/2000/svg">
<path d="M1348.44 45.7855C1356.35 51.7273 1362.03 55.4667 1365.08 64.8747C1367.67 72.9135 1366.4 78.2843 1364.43 86.4983C1362.23 95.6149 1358.03 99.6625 1353.66 107.957C1350.31 114.299 1348.53 117.912 1344.85 124.064C1340.23 131.789 1339.88 138.777 1332.07 143.243C1324.86 147.36 1318.37 148.895 1310.92 145.246C1303.38 141.552 1302.73 134.769 1299.53 127.007C1296.05 118.556 1299.12 112.096 1294.67 104.109C1291.59 98.583 1288.99 95.8399 1284.08 91.8597C1278.43 87.2864 1271.7 89.2824 1267.55 83.3176C1264.51 78.9576 1264.28 75.4786 1264.05 70.1717C1263.53 57.9262 1268.97 50.027 1278.49 42.3017C1287.61 34.8969 1295.59 34.3599 1307.32 33.7317C1324.03 32.837 1335.07 35.7289 1348.44 45.7855Z" fill="#FABFFF" stroke="#FABFFF" stroke-width="7"/>
<path d="M131 606C64.5 625.5 -2 621 -2 621V-3H1134.5C1134.5 -3 1089.67 11.1142 1068 30.5C1047.78 48.5885 1039.88 63.1419 1029 88C1015 120 1010.57 139.479 991 168C954.116 221.763 922.357 252.459 860 271.5C777.813 296.597 730.434 227 644.5 227C609 227 586.5 232 555.5 242.5C525.77 252.57 518.697 257.71 490.5 271.5C456.266 288.243 443.5 302.5 407 334C389.015 349.521 367.647 374.759 349 405.5C332.548 432.622 326.5 459 285.5 509C244.5 559 197.5 586.5 131 606Z" fill="#FABFFF" stroke="#FABFFF" stroke-width="7"/>
</svg>
