<svg width="877" height="616" viewBox="0 0 877 616" fill="none" xmlns="http://www.w3.org/2000/svg">
<path d="M291.226 279C170.233 279 -46.2667 232 10.226 0H876.726V532C751.733 523 716.233 465.5 713.733 462C689.186 427.634 640.233 450 624.733 452.5C609.233 455 474.734 474.5 428.234 437.5C428.234 437.5 372.734 396 372.734 345C372.734 294 322.233 279 291.226 279Z" fill="#FFBACB" stroke="#FFBACB"/>
<path d="M210.759 334.28C222.855 321.773 232.864 312.949 250.99 308.669C260.872 306.336 264.882 306.807 276.956 307.327C289.851 310.383 296.421 315.834 303.824 323.462C311.228 331.09 322.505 355.54 322.505 355.54C322.505 355.54 333.796 371.808 338.009 384.278C340.17 390.675 342.046 394.584 338.809 399.757C335.896 404.414 329.184 407.264 319.197 407.78C293.232 409.123 279.63 405.463 255.713 400.047C236.025 395.47 228.414 394.949 205.798 383.602C197.574 379.475 197 377.266 196 375.5C195 373.734 192 366.5 199 352.5L210.759 334.28Z" fill="#FFBACB" stroke="#FFBACB"/>
<path d="M687.702 478.902C691.348 485.47 693.123 492.228 689.384 498.743C685.982 504.67 682.472 505.753 675.667 506.382C666.704 507.211 662.244 498.148 654.629 493.348C649.738 490.264 641.609 491.717 639.057 486.528C636.704 481.742 637.092 477.839 639.034 472.871C641.172 467.4 644.195 464.334 649.688 462.254C656.958 459.501 662.636 461.92 669.756 465.038C676.877 468.157 683.929 472.105 687.702 478.902Z" fill="#FFBACB" stroke="#FFBACB"/>
<path d="M817.898 546.5C793.833 538.866 789.514 532.001 754.898 532C752.398 532 750.398 534.5 750.398 534.5C749.707 535.901 750.056 536.976 750.398 538.5C751.039 541.358 753.079 542.204 754.898 544.5C762.014 553.484 767.973 556.769 775.398 565.5C783.089 574.544 785.183 581.428 793.398 590C801.859 598.829 806.608 604.802 817.898 609.5C828.274 613.818 836.104 618.012 846.398 613.5C852.353 610.89 855.431 608.002 858.898 602.5C862.559 596.69 863.177 592.364 863.398 585.5C863.728 575.255 861.691 568.592 855.398 560.5C845.801 548.161 832.798 551.227 817.898 546.5Z" fill="#FFBACB" stroke="#FFBACB"/>
</svg>
