<svg width="1365" height="654" viewBox="0 0 1365 654" fill="none" xmlns="http://www.w3.org/2000/svg">
<path d="M1339.55 140.253C1349.67 134.348 1352.85 131.976 1358.86 120.615C1364.88 109.254 1354.17 91.1531 1354.17 91.1531C1347.61 80.9792 1341.5 76.532 1330.92 70.6548C1318.47 63.7446 1309.49 64.776 1295.62 61.5426C1282.51 58.4836 1274.8 58.2482 1261.88 54.4586C1253.98 52.1421 1248.9 51.9908 1241.96 47.5659C1237.35 44.6268 1229.35 39.8881 1225.3 36.2166C1211.24 23.4732 1210.2 17.68 1197.06 3.9882C1195.4 2.26347 1193.87 0.605659 1192.43 -0.999994L1015.31 -0.999992C1016.94 2.97862 1019.1 6.96953 1021.82 11.4886C1029.33 23.9978 1038.32 29.6789 1049.09 39.5274C1060.85 50.2788 1070.16 52.8115 1084.39 59.9754C1099.45 67.556 1108.1 71.5797 1124.07 76.9586C1139.47 82.1416 1148.53 83.6951 1164.39 87.1709C1178.59 90.2808 1187.09 89.7583 1200.96 94.077C1206.57 95.8225 1209.77 96.7389 1215.1 99.2083C1227.73 105.057 1232.18 112.655 1243.72 120.432C1255.72 128.524 1261.89 134.469 1275.4 139.691C1290.11 145.379 1299.46 148.221 1315.16 146.749C1324.98 145.83 1331.04 145.221 1339.55 140.253Z" fill="#FCF6BD" stroke="#FCF6BD" stroke-width="7"/>
<path d="M82.5 650.427C44.7341 652.015 -10 621.927 -10 621.927V-1.57318H942C942 -1.57318 944.5 0.92688 934.5 28.9268C924.5 56.9268 919.513 63.9579 902.5 80.4268C884.227 98.116 869.672 104.018 845.5 111.927C819.902 120.302 802.436 111.074 777 119.927C754.354 127.808 746.992 129.902 734.5 144.427C723.265 157.49 720.597 171.856 717 184.927C709.02 213.925 702.009 229.965 686 255.427C666.578 286.317 653.063 303.748 623 324.427C597.566 341.922 580.286 347.819 550.5 355.927C511.759 366.473 487.958 359.999 448 363.927C429.824 365.713 419.244 364.6 401.5 368.927C373.5 375.755 358.122 383.723 335 400.927C308 421.016 296.68 437.791 279 466.427C259.018 498.791 258 529.927 237.5 560.927C219.569 588.042 210.591 604.737 183 621.927C148.486 643.43 123.128 648.719 82.5 650.427Z" fill="#FCF6BD" stroke="#FCF6BD" stroke-width="7"/>
</svg>
